<?xml version="1.0" encoding="UTF-8" standalone="no"?>
<!-- Created with Inkscape (http://www.inkscape.org/) -->

<svg
   version="1.1"
   id="svg1"
   width="1000"
   height="1000"
   viewBox="0 0 1000 1000"
   sodipodi:docname="icon.svg"
   xml:space="preserve"
   inkscape:version="1.4.2 (ebf0e940d0, 2025-05-08)"
   inkscape:export-filename="icon.png"
   inkscape:export-xdpi="49.152"
   inkscape:export-ydpi="49.152"
   xmlns:inkscape="http://www.inkscape.org/namespaces/inkscape"
   xmlns:sodipodi="http://sodipodi.sourceforge.net/DTD/sodipodi-0.dtd"
   xmlns="http://www.w3.org/2000/svg"
   xmlns:svg="http://www.w3.org/2000/svg"><defs
     id="defs1" /><sodipodi:namedview
     id="namedview1"
     pagecolor="#ffffff"
     bordercolor="#000000"
     borderopacity="0.25"
     inkscape:showpageshadow="2"
     inkscape:pageopacity="0.0"
     inkscape:pagecheckerboard="0"
     inkscape:deskcolor="#d1d1d1"
     inkscape:zoom="1.3823358"
     inkscape:cx="533.51725"
     inkscape:cy="594.28397"
     inkscape:window-width="2326"
     inkscape:window-height="2095"
     inkscape:window-x="0"
     inkscape:window-y="0"
     inkscape:window-maximized="0"
     inkscape:current-layer="g29"><inkscape:page
       x="0"
       y="0"
       width="1000"
       height="1000"
       id="page2"
       margin="0"
       bleed="0" /></sodipodi:namedview><g
     inkscape:groupmode="layer"
     inkscape:label="Image"
     id="g1"><g
       id="g29"
       transform="translate(-15.191678,-2.1702397)"><g
         id="g30"
         transform="translate(-53.031769,16.93099)"><path
           style="fill:#e95420;fill-opacity:1"
           d="m 584.2922,841.25465 c 21.9415,-2.5666 36.3023,-5.3586 56.245,-10.9352 5.2543,-1.4692 12.3002,-4.2467 17.9835,-7.0889 2.349,-1.1747 5.1937,-2.3844 6.3217,-2.6881 1.1279,-0.3037 4.9436,-1.8879 8.4792,-3.5205 6.1518,-2.8405 7.958,-3.8641 18.6428,-10.5652 2.5929,-1.6262 4.9664,-2.9568 5.2746,-2.9568 0.6126,0 7.3949,-4.2782 11.761,-7.4187 13.1961,-9.4918 31.4501,-26.1982 39.1507,-35.8313 2.1983,-2.75 4.9352,-6.125 6.0821,-7.5 2.9598,-3.5486 9.887,-13.6184 13.4142,-19.5 4.4044,-7.3441 12.8664,-24.9619 15.8502,-33 4.4409,-11.9632 9.3045,-32.4655 11.268,-47.5 0.9209,-7.0507 1.7315,-23.0149 1.4221,-28.0067 -0.7724,-12.4641 -1.3892,-19.0041 -2.4985,-26.4933 -1.2127,-8.1867 -1.68,-10.6764 -4.3646,-23.25 -2.1242,-9.9489 -7.2388,-28.3442 -10.9132,-39.25 -5.8913,-17.4859 -9.6222,-27.2809 -18.1879,-47.75 -1.5536,-3.7125 -3.4576,-8.325 -4.2312,-10.25 -1.6254,-4.0449 -7.6559,-17.0054 -11.6324,-25 -4.599,-9.2461 -13.745,-28.4914 -18.1706,-38.235 -2.3071,-5.0792 -4.4746,-9.5071 -4.8168,-9.8398 -0.4894,-0.4757 -1.4752,-0.071 -4.6221,1.8975 -10.8905,6.8126 -22.8007,11.6266 -38.167,15.4269 -23.907,5.9126 -45.3734,9.4234 -71.833,11.7482 -25.366,2.2287 -73.9854,1.9573 -97.25,-0.5429 -31.4492,-3.3797 -52.203,-7.0799 -73,-13.0149 -10.4449,-2.9808 -23.70642,-8.5927 -31.27847,-13.2362 -2.30633,-1.4144 -4.48924,-2.458 -4.85093,-2.3192 -0.36168,0.1388 -1.24611,1.684 -1.96539,3.4339 -1.22167,2.972 -4.45107,10.1672 -8.497,18.9315 -0.95212,2.0625 -2.01314,4.4568 -2.35781,5.3207 -0.58601,1.4687 -5.90024,12.0926 -7.718,15.4293 -1.13974,2.0922 -6.33239,13.1812 -6.33239,13.523 0,0.1542 -2.46981,5.5228 -5.48847,11.9303 -3.01866,6.4074 -6.59937,14.5516 -7.95715,18.0983 -1.35777,3.5466 -3.0377,7.7984 -3.73317,9.4484 -7.37704,17.5021 -15.81579,42.5231 -20.55813,60.9552 -5.91386,22.9853 -7.73114,32.4803 -9.2912,48.5448 -1.92599,19.8326 -0.6792,41.1906 3.49139,59.8089 4.20322,18.7641 8.4359,31.6459 14.66816,44.6414 11.5412,24.0658 25.96138,43.9147 44.59872,61.3885 13.37766,12.5425 25.72524,21.8422 40.01984,30.1415 2.75,1.5966 6.8,3.9729 9,5.2807 6.1813,3.6745 12.0616,6.4153 30.0838,14.0222 9.0989,3.8405 21.7449,7.7983 29.3939,9.1993 1.9373,0.3548 6.3348,1.228 9.7723,1.9403 11.4345,2.3695 28.1091,4.6878 38.25,5.3179 9.1943,0.5713 30.912,0.1566 38.5422,-0.736 z"
           id="path15" /><path
           style="fill:#e95420;fill-opacity:1"
           d="m 741.8371,233.375 c 0.5563,-0.61875 3.3358,-4.5 6.1768,-8.625 14.9294,-21.67722 31.0929,-42.97971 47.7361,-62.91335 14.6417,-17.53644 15.5502,-18.8315 14.9925,-21.37106 -0.8958,-4.07842 -10.3367,-8.28061 -26.3468,-11.72706 -6.0655,-1.30571 -7.3582,-0.56649 -13.2232,7.5616 -1.6074,2.22757 -7.5537,10.21507 -13.214,17.75 -15.7012,20.90119 -32.2225,44.53175 -42.2636,60.44987 -2.863,4.53881 -3.003,5.17387 -1.456,6.60827 1.8587,1.72355 11.9831,6.60541 12.9384,6.2388 0.4395,-0.16863 1.8731,-1.8221 3.1859,-3.67438 6.4442,-9.09272 19.8966,-26.96556 23.0864,-30.67269 15.5914,-18.12014 24.7121,-27.79625 34.0504,-36.12429 7.0439,-6.28177 9.6084,-8.28339 8.7133,-6.80059 -0.7127,1.18053 -5.1875,6.90992 -12.4587,15.9516 -9.2263,11.47302 -35.4921,46.55844 -40.5928,54.22328 -7.144,10.73538 -7.6621,11.99267 -5.5505,13.47165 1.5576,1.09099 3.0429,0.96915 4.2258,-0.34665 z"
           id="path28" /><path
           style="fill:#e95420;fill-opacity:1"
           d="m 721.949,256.86503 c -4.7693,-3.18609 -4.2743,-9.69004 0.8667,-11.3867 2.5935,-0.85595 5.8081,0.3439 6.977,2.60416 0.8554,1.65426 0.9193,4.90516 0.1304,6.6366 -0.5654,1.24097 -3.9895,3.28091 -5.507,3.28091 -0.4225,0 -1.5327,-0.51073 -2.4671,-1.13497 z"
           id="path27" /><path
           style="fill:#e95420;fill-opacity:1"
           d="m 731.25,262.54752 c 2.3519,-1.09424 5.968,-4.70183 6.721,-6.70507 0.8483,-2.25714 0.6234,-5.8317 -0.5149,-8.18325 -1.9074,-3.93998 -2.93,-4.56861 -25.2061,-15.4948 -7.6739,-3.76395 -9.3684,-4.4144 -11.5,-4.4144 -5.6542,0 -9.7345,4.57408 -9.7451,10.92444 -0.01,5.36918 1.7112,7.43539 10.0784,12.10565 2.8417,1.58613 8.0917,4.61137 11.6667,6.72275 9.8891,5.84045 14.2397,7.02682 18.5,5.04468 z"
           id="path26" /><path
           style="fill:#e95420;fill-opacity:1"
           d="m 661.415,373.97152 c 1.3609,-0.29186 2.9354,-1.03007 3.5167,-1.64878 0.5788,-0.61617 6.419,-11.79711 12.9782,-24.84653 15.0697,-29.98116 25.9292,-51.22155 27.3406,-53.47621 2.6162,-4.17923 11.2923,-21.52628 11.0016,-21.99665 -0.176,-0.2847 -1.2522,-0.99326 -2.3917,-1.57457 l -2.0717,-1.05692 -1.3113,1.57067 c -0.7212,0.86387 -4.0577,6.91145 -7.4146,13.43907 -3.3569,6.52762 -7.2994,14.1184 -8.7612,16.8684 -3.4445,6.48022 -10.5478,20.29847 -22.8108,44.37498 -5.4276,10.65624 -10.0814,19.65624 -10.3418,20 -0.8383,1.10654 -3.149,6.90939 -3.149,7.90798 0,1.12301 0.1398,1.14096 3.415,0.43856 z"
           id="path25" /><path
           style="fill:#e95420;fill-opacity:1"
           d="m 638.4699,378.95799 c 6.2981,-1.28452 8.1708,-2.04424 9.4216,-3.82229 0.5361,-0.76214 8.3414,-16.1232 17.345,-34.1357 9.0037,-18.0125 16.5467,-32.975 16.7623,-33.25 0.2156,-0.275 3.5393,-6.575 7.3861,-14 3.8467,-7.425 8.5963,-16.56321 10.5546,-20.30713 1.9583,-3.74391 3.5605,-7.27168 3.5605,-7.83948 0,-1.60582 -10.0127,-7.58925 -11.6491,-6.9613 -1.0097,0.38748 -6.6755,10.5586 -16.3537,29.35791 -4.4595,8.6625 -9.1766,17.6625 -10.4822,20 -4.7611,8.5237 -33.447,65.01764 -34.9449,68.82046 -0.5569,1.41375 -0.8755,2.70749 -0.708,2.87499 0.5791,0.579 4.0184,0.3005 9.1078,-0.73746 z"
           id="path24" /><path
           style="fill:#e95420;fill-opacity:1"
           d="m 580.8938,420.24855 c 10.8661,-0.2321 24.3517,-1.0385 33.3562,-1.9947 27.0348,-2.8706 46.1751,-6.2257 62.7354,-10.9969 13.8477,-3.9897 17.8467,-5.44 25.0146,-9.0719 10.8289,-5.4869 18.528,-11.5988 21.1574,-16.7957 2.9143,-5.76007 2.1153,-12.70155 -2.1246,-18.45745 -2.9549,-4.01151 -6.6119,-6.70127 -15.0328,-11.05677 -9.0126,-4.66157 -11.7476,-5.70705 -12.751,-4.87431 -0.9177,0.76163 -5.249,9.62031 -5.249,10.73564 0,0.40716 1.1813,1.66866 2.625,2.80335 6.9174,5.4366 7.0641,10.6023 0.4423,15.57996 -7.0633,5.30958 -28.17,11.28918 -51.5673,14.60928 -30.1017,4.2714 -45.7502,5.3473 -77.25,5.3114 -32.5148,-0.037 -50.0478,-1.2105 -79.25,-5.304 -16.0885,-2.2553 -40.8402,-8.605 -48.3223,-12.39643 C 430.1441,376.0427 426,371.6579 426,369.15836 c 0,-1.55433 2.0805,-5.61582 3.5755,-6.98018 3.0334,-2.76816 16.4618,-8.0575 27.7525,-10.93143 9.5381,-2.42784 30.1814,-5.71349 47.172,-7.50802 11.0846,-1.17074 36.944,-2.22436 54.75,-2.23073 23.7903,-0.009 42.8327,0.89365 58.5,2.77154 3.3,0.39554 7.7913,0.7757 9.9807,0.84481 l 3.9808,0.12565 2.8835,-5.25 c 1.586,-2.8875 2.8884,-5.62587 2.8943,-6.08527 0.01,-0.51444 -0.5174,-0.94237 -1.3643,-1.11409 -6.9388,-1.40703 -24.0909,-3.33992 -41.125,-4.63442 -14.1524,-1.07551 -53.0661,-1.23341 -67.25,-0.27288 -10.64,0.72053 -22.725,1.84177 -28,2.5978 -1.925,0.2759 -6.7625,0.96359 -10.75,1.52819 -17.3748,2.46016 -36.8612,6.57264 -50,10.55222 -22.6008,6.84547 -35.98282,14.64665 -40.62867,23.68484 -1.12393,2.18651 -2.04601,7.4229 -1.72653,9.80477 0.49026,3.65509 3.09983,8.11619 6.65136,11.37059 5.10262,4.6756 16.73174,11.1457 26.20384,14.5791 28.0618,10.1715 62.6986,16.0987 105.1299,17.9901 19.9148,0.8877 17.027,0.8723 46.2639,0.2476 z"
           id="path23" /><path
           style="fill:#ffffff;fill-opacity:1"
           d="m 682.3989,531.06705 c -8.0304,-2.659 -12.3856,-7.8253 -13.4104,-15.9078 -0.8872,-6.9973 0.4193,-11.4848 4.7943,-16.468 4.6218,-5.2643 11.6117,-7.9068 17.6172,-6.6601 10.0116,2.0784 16.4901,9.4588 17.0107,19.3789 0.1923,3.6622 0.053,4.584 -1.1533,7.6599 -1.8098,4.6127 -5.6638,8.829 -10.0396,10.9832 -4.1814,2.0585 -10.3827,2.4828 -14.8189,1.0139 z"
           id="path22" /><path
           style="fill:#ffffff;fill-opacity:1"
           d="m 557.8035,596.20915 c -0.1669,-0.435 -0.3035,-17.7625 -0.3035,-38.5054 0,-41.4381 0.1134,-43.3754 3.0003,-51.2858 2.412,-6.6091 4.7372,-10.2708 9.4731,-14.918 6.0752,-5.9613 11.3726,-9.0155 18.682,-10.7708 4.9575,-1.1905 6.2779,-1.3151 11.5946,-1.094 9.2274,0.3839 15.9212,2.7758 22.5418,8.0549 3.9724,3.1675 6.0404,5.5365 9.4323,10.8051 4.7615,7.3958 6.4041,14.3829 6.1723,26.2548 l -0.1464,7.5 -9.9641,0.1359 c -5.4803,0.075 -10.161,-0.061 -10.4017,-0.3017 -0.2406,-0.2406 -0.6259,-3.9017 -0.856,-8.1358 -0.4749,-8.7355 -1.2169,-11.3707 -4.6482,-16.5091 -1.8273,-2.7364 -2.4598,-3.2604 -5.7412,-4.7557 -4.4297,-2.0188 -7.9043,-2.5095 -11.9111,-1.6825 -4.0759,0.8414 -6.5066,2.1461 -9.6412,5.1751 -3.086,2.9821 -3.712,4.049 -5.3877,9.1823 l -1.2322,3.7747 0.052,38.7316 c 0.029,21.3023 -0.043,38.8269 -0.16,38.9434 -0.1166,0.1166 -2.9484,-0.056 -6.293,-0.3831 -4.6596,-0.4559 -6.8232,-0.4583 -9.2559,-0.01 -4.1308,0.7611 -4.6431,0.7401 -5.0061,-0.2059 z"
           id="path21" /><path
           style="fill:#ffffff;fill-opacity:1"
           d="m 651.011,638.25315 c -8.315,-1.8916 -15.5143,-5.7777 -21.3103,-11.5032 -5.7258,-5.6559 -8.3185,-10.5719 -11.0521,-20.9555 l -1.328,-5.0445 -0.035,-28.3329 c -0.019,-15.5831 0.1533,-28.5206 0.3838,-28.75 0.2305,-0.2294 4.805,-0.4171 10.1655,-0.4171 9.0709,0 9.7956,0.067 10.4559,0.9706 0.592,0.8098 0.7095,5.4604 0.7095,28.0805 0,25.1491 0.068,27.3288 0.942,30.1365 1.2869,4.1348 3.004,6.9074 6.0319,9.7396 3.8093,3.5632 7.2604,4.9691 12.2338,4.9839 6.0184,0.018 8.9412,-1.0275 12.6332,-4.5182 3.0139,-2.8496 3.9438,-4.2408 5.5641,-8.3247 0.7162,-1.805 0.854,-5.7766 1.0828,-31.2117 0.2818,-31.3215 0.2104,-30.5502 2.7622,-29.8419 2.5865,0.7179 11.002,0.8483 14.3219,0.2219 3.0047,-0.567 3.5753,-0.5597 3.9616,0.051 0.6575,1.039 0.5904,53.4998 -0.075,58.2811 -1.2106,8.7034 -5.4394,18.3333 -10.4541,23.8059 -2.9186,3.1852 -8.3565,7.283 -12.3436,9.3017 -6.5469,3.3148 -17.9434,4.8531 -24.6503,3.3274 z"
           id="path20" /><path
           style="fill:#ffffff;fill-opacity:1"
           d="m 562.8659,647.24145 c -5.1674,-1.2943 -11.1118,-5.9495 -13.0331,-10.2065 -0.8426,-1.8671 -1.0359,-3.3366 -1.057,-8.035 -0.022,-4.9496 0.1417,-6.1658 1.1772,-8.7373 1.5946,-3.9599 5.2844,-7.8246 9.4096,-9.8554 6.4329,-3.1669 15.9949,-2.195 21.1472,2.1495 5.4035,4.5563 7.1512,8.3633 7.2041,15.6932 0.034,4.7399 -0.053,5.1776 -1.686,8.4111 -1.9755,3.9131 -6.0982,8.0494 -9.8616,9.8943 -2.9767,1.4592 -8.9782,1.7688 -13.3004,0.6861 z"
           id="path19" /><path
           style="fill:#ffffff;fill-opacity:1"
           d="m 454.5,714.66635 c -2.9082,-0.9732 -11.5833,-1.1067 -14.171,-0.2181 -1.1988,0.4117 -2.0977,0.483 -2.391,0.1897 -0.2883,-0.2883 -0.412,-17.1676 -0.32,-43.6789 l 0.1499,-43.2091 1.4056,-4.4696 c 2.3804,-7.5693 5.5921,-12.9657 10.9614,-18.4176 5.282,-5.3632 12.0724,-9.289 18.3516,-10.6099 4.4656,-0.9394 13.7042,-0.9613 18.0135,-0.043 8.1718,1.7418 14.9057,5.577 20.556,11.7073 4.9574,5.3786 8.5397,12.1625 10.2086,19.3326 0.8954,3.847 1.5017,20.2133 0.7872,21.25 -0.4308,0.6251 -2.1136,0.7433 -10.1039,0.71 -8.7448,-0.036 -9.6468,-0.1218 -10.2674,-0.9706 -0.4956,-0.6777 -0.6805,-2.7924 -0.6805,-7.7824 0,-7.8887 -0.8959,-11.7458 -3.66,-15.7567 -7.0041,-10.1636 -24.3805,-10.0538 -30.8815,0.1952 -3.3256,5.2428 -3.171,3.0106 -3.4528,49.8544 -0.253,42.0458 -0.2664,42.5009 -1.2557,42.5847 -0.55,0.046 -2.0125,-0.2542 -3.25,-0.6683 z"
           id="path18" /><path
           style="fill:#ffffff;fill-opacity:1"
           d="m 534.25,765.18065 c -6.4436,-0.8889 -15.8202,-4.7323 -20.8117,-8.5305 -6.4285,-4.8918 -12.1794,-13.7021 -14.7008,-22.5215 l -1.2519,-4.3787 0.1322,-35.75 0.1322,-35.75 H 508 518.25 l 0.2636,34.5 c 0.2467,32.2788 0.3246,34.661 1.211,37 2.2693,5.9883 5.8113,9.8968 10.7357,11.8466 2.2615,0.8954 3.8311,1.1091 8.2897,1.129 5.3384,0.024 5.593,-0.026 8.6665,-1.6924 3.9686,-2.1516 7.2108,-5.7962 8.6846,-9.7623 1.1126,-2.9943 1.1248,-3.3228 1.3857,-37.3546 0.1448,-18.8836 0.4271,-34.4975 0.6275,-34.6976 0.2003,-0.2001 2.0521,-0.075 4.1151,0.2778 2.349,0.4018 6.0001,0.549 9.7691,0.3938 5.821,-0.2398 6.0269,-0.2131 6.285,0.8153 0.1468,0.5848 0.1864,16.9215 0.088,36.3039 -0.2003,39.4639 0.034,36.8305 -4.0221,45.2202 -4.0534,8.3842 -10.3787,14.5305 -19.5994,19.0446 -5.6547,2.7683 -8.1737,3.3993 -15.5,3.8825 -1.925,0.127 -4.175,0.1377 -5,0.024 z"
           id="path17" /><path
           style="fill:#ffffff;fill-opacity:1"
           d="m 442.3672,765.48765 c -4.8817,-1.2322 -9.4242,-4.8733 -12.0983,-9.6975 -4.7609,-8.5891 -2.8764,-18.805 4.616,-25.024 4.2213,-3.5039 7.0225,-4.4835 12.8651,-4.4991 4.0166,-0.011 4.8491,0.1547 7.75,1.5406 4.7309,2.2602 7.5253,4.9728 9.7399,9.4547 1.7527,3.5472 1.8808,4.1171 1.9433,8.6426 0.094,6.8331 -0.8608,9.3678 -5.1369,13.633 -4.4911,4.4798 -7.88,6.0476 -13.537,6.2628 -2.3426,0.089 -5.1065,-0.052 -6.1421,-0.3131 z"
           id="path16" /></g></g><path
       style="fill:none;fill-opacity:1"
       d="M 1e-5,487.99995 V 0 H 545 1090 v 487.99995 488 H 545 1e-5 Z"
       id="path1" /></g></svg>
